<svg width="604" height="891" viewBox="0 0 604 891" fill="none" xmlns="http://www.w3.org/2000/svg">
<path fill-rule="evenodd" clip-rule="evenodd" d="M91.628 200.315C-2.91855 161.185 -24.9097 -16.4055 -124.146 1.84539C-218.21 19.1449 -164.211 166.021 -182.587 250.747C-192.12 294.698 -204.093 336.191 -206.428 381.214C-208.49 420.976 -203.687 459.35 -195.457 498.897C-185.916 544.744 -170.594 587.347 -154.26 631.894C-122.08 719.661 -152.134 867.375 -52.4795 888.849C46.7935 910.24 50.4236 725.392 144.582 696.288C233.444 668.821 335.008 770.172 423.451 741.741C512.542 713.101 623.632 634.551 599.797 549.954C570.566 446.203 386.27 446.034 315.46 358.445C274.193 307.399 353.125 215.534 297.901 176.52C240.817 136.192 157.241 227.471 91.628 200.315Z" fill="url(#paint0_linear_32_88)"/>
<defs>
<linearGradient id="paint0_linear_32_88" x1="263.569" y1="77.2808" x2="87.5759" y2="918.163" gradientUnits="userSpaceOnUse">
<stop stop-color="#E3FFFC"/>
<stop offset="1" stop-color="#D07ADE"/>
</linearGradient>
</defs>
</svg>
