<svg width="519" height="732" viewBox="0 0 519 732" fill="none" xmlns="http://www.w3.org/2000/svg">
<path fill-rule="evenodd" clip-rule="evenodd" d="M274.928 239.296C283.313 212.902 291.396 187.459 274.462 169.468C257.273 151.205 229.792 155.915 201.951 160.687C175.63 165.198 148.987 169.765 130.413 155.027C109.856 138.716 105.67 109.163 101.557 80.1228C97.0265 48.139 92.5844 16.779 66.4572 4.42271C33.5618 -11.1345 -0.669617 17.3246 -32.2944 43.6165C-41.6473 51.3922 -50.7722 58.9784 -59.567 65.1804C-91.2483 87.5214 -120.815 114.382 -138.438 148.911C-146.128 163.978 -145.921 181.389 -145.715 198.759C-145.5 216.887 -145.285 234.97 -154.049 250.297C-163.846 267.429 -180.623 278.095 -197.517 288.836C-211.653 297.823 -225.871 306.861 -236.151 319.784C-244.954 330.849 -257.227 342.74 -269.88 354.997C-305.087 389.105 -343.227 426.053 -317.655 455.955C-294.773 482.711 -256.485 471.994 -217.155 460.986C-181.082 450.889 -144.133 440.547 -117.394 458.65C-97.1374 472.364 -103.107 502.523 -108.995 532.268C-113.63 555.684 -118.214 578.844 -109.913 593.521C-107.401 606.415 -102.982 619.355 -98.5426 632.351C-90.675 655.385 -82.7471 678.596 -85.2769 702.045C-87.3384 721.153 -100.994 738.587 -114.277 755.546C-131.354 777.348 -147.815 798.364 -138.233 821.137C-128.507 844.254 -101.112 849.44 -73.3574 854.695C-47.1185 859.662 -20.5584 864.69 -8.30292 884.987C5.26083 907.452 -1.14041 936.606 -7.43027 965.253C-14.3578 996.805 -21.1502 1027.74 -0.985169 1048.45C24.4036 1074.51 66.4199 1059.8 105.237 1046.22C116.717 1042.2 127.917 1038.28 138.324 1035.54C175.813 1025.67 212.9 1010.83 241.475 984.633C253.944 973.202 259.832 956.815 265.706 940.468C271.837 923.406 277.952 906.387 291.518 895.087C306.683 882.456 326.129 878.323 345.711 874.16C362.095 870.678 378.575 867.175 392.722 858.657C404.835 851.364 420.489 844.51 436.626 837.445C481.53 817.784 530.174 796.486 516.658 759.535C504.564 726.472 464.944 723.139 424.247 719.715C386.919 716.575 348.685 713.358 329.954 687.055C315.764 667.129 331.893 640.955 347.8 615.141C364.032 588.8 380.033 562.834 363.356 544.262C350.237 529.652 332.117 535.488 312.226 545.999C335.043 513.79 344.268 469.703 341.034 430.87C338.768 403.653 321.072 382.037 303.218 360.227C287.8 341.392 272.264 322.412 266.443 299.556C261.7 280.933 268.405 259.826 274.928 239.296Z" fill="url(#paint0_linear_67_112)"/>
<defs>
<linearGradient id="paint0_linear_67_112" x1="188.355" y1="852.869" x2="-409.392" y2="49.0026" gradientUnits="userSpaceOnUse">
<stop stop-color="#0EC7EF"/>
<stop offset="1" stop-color="#883939"/>
</linearGradient>
</defs>
</svg>
