<svg width="422" height="1063" viewBox="0 0 422 1063" fill="none" xmlns="http://www.w3.org/2000/svg">
<path fill-rule="evenodd" clip-rule="evenodd" d="M600.928 239.296C609.313 212.902 617.396 187.459 600.462 169.468C583.273 151.205 555.792 155.915 527.951 160.687C501.63 165.198 474.987 169.765 456.413 155.027C435.856 138.716 431.67 109.163 427.557 80.1228C423.026 48.139 418.584 16.779 392.457 4.42271C359.562 -11.1345 325.33 17.3246 293.706 43.6165C284.353 51.3922 275.228 58.9784 266.433 65.1804C234.752 87.5214 205.185 114.382 187.562 148.911C179.872 163.978 180.079 181.389 180.285 198.759C180.5 216.887 180.715 234.97 171.951 250.297C162.154 267.429 145.377 278.095 128.483 288.836C114.347 297.823 100.129 306.861 89.8487 319.784C81.0463 330.849 68.7726 342.74 56.1202 354.997C20.9126 389.105 -17.2266 426.053 8.34508 455.955C31.2268 482.711 69.5154 471.994 108.845 460.986C144.918 450.889 181.867 440.547 208.606 458.65C228.863 472.364 222.893 502.523 217.005 532.268C212.37 555.684 207.786 578.844 216.087 593.521C218.599 606.415 223.018 619.355 227.457 632.351C235.325 655.385 243.253 678.596 240.723 702.045C238.662 721.153 225.006 738.587 211.723 755.546C194.646 777.348 178.185 798.364 187.767 821.137C197.493 844.254 224.888 849.44 252.643 854.695C278.881 859.662 305.442 864.69 317.697 884.987C331.261 907.452 324.86 936.606 318.57 965.253C311.642 996.805 304.85 1027.74 325.015 1048.45C350.404 1074.51 392.42 1059.8 431.237 1046.22C442.717 1042.2 453.917 1038.28 464.324 1035.54C501.813 1025.67 538.9 1010.83 567.475 984.633C579.944 973.202 585.832 956.815 591.706 940.468C597.837 923.406 603.952 906.387 617.518 895.087C632.683 882.456 652.129 878.323 671.711 874.16C688.095 870.678 704.575 867.175 718.722 858.657C730.835 851.364 746.489 844.51 762.626 837.445C807.53 817.784 856.174 796.486 842.658 759.535C830.564 726.472 790.944 723.139 750.247 719.715C712.919 716.575 674.685 713.358 655.954 687.055C641.764 667.129 657.893 640.955 673.8 615.141C690.032 588.8 706.033 562.834 689.356 544.262C676.237 529.652 658.117 535.488 638.226 545.999C661.043 513.79 670.268 469.703 667.034 430.87C664.768 403.653 647.072 382.037 629.218 360.227C613.8 341.392 598.264 322.412 592.443 299.556C587.7 280.933 594.405 259.826 600.928 239.296Z" fill="url(#paint0_linear_19_248)"/>
<defs>
<linearGradient id="paint0_linear_19_248" x1="514.355" y1="852.869" x2="-83.3921" y2="49.0026" gradientUnits="userSpaceOnUse">
<stop stop-color="#EF0EE6"/>
<stop offset="1" stop-color="#883939"/>
</linearGradient>
</defs>
</svg>
