<svg width="488" height="868" viewBox="0 0 488 868" fill="none" xmlns="http://www.w3.org/2000/svg">
<path fill-rule="evenodd" clip-rule="evenodd" d="M586.909 199.105C569.902 195.622 553.006 192.162 537.576 184.204C514.601 172.355 492.075 148.272 470.075 124.751C432.135 84.1873 395.759 45.2966 361.345 73.7152C331.269 98.5517 356.187 137.431 382.152 177.945C406.878 216.524 432.553 256.585 412.595 287.412C391.309 320.29 346.533 318.468 300.895 316.612C258.311 314.88 214.977 313.117 189.281 339.487C150.523 379.26 180.114 451.414 205.976 499.443C222.669 530.443 247.387 562.394 277.996 582.137C295.326 609.971 308.668 637.575 296.055 663.816C281.739 693.601 244.422 696.629 206.128 699.735C171.797 702.521 136.681 705.369 116.649 727.62C80.2565 768.044 82.8093 833.253 97.3529 884.529C112.179 936.802 141.216 1009.17 197.432 1012.43C234.703 1014.6 265.106 984.489 294.984 954.9C327.004 923.191 358.42 892.079 397.038 901.929C433.248 911.165 442.619 957.494 451.643 1002.11C461.12 1048.96 470.215 1093.93 509.607 1092.06C554.681 1089.92 553.945 1037.33 553.177 982.474C552.732 950.666 552.276 918.098 560.734 894.165C566.416 878.091 576.323 864.327 586.297 850.472C592.925 841.264 599.582 832.016 605.047 822.023C610.707 811.673 615.162 800.915 619.602 790.195C625.822 775.176 632.012 760.231 641.442 746.581C654.254 728.036 671.503 712.063 688.612 696.218C716.096 670.767 743.22 645.648 751.013 610.74C751.443 608.81 751.838 606.871 752.197 604.925C768.078 602.339 784.64 601.663 801.089 600.991C837.621 599.5 873.598 598.031 900.341 575.714C946.079 537.546 964.725 470.988 960.097 413.151C955.518 355.924 924.103 297.316 875.447 264.592C845.255 244.286 807.819 243.987 769.886 243.683C746.273 243.494 722.466 243.303 700.095 238.284C683.628 234.589 668.618 227.794 653.535 220.965C642.769 216.09 631.965 211.199 620.567 207.406C609.563 203.744 598.211 201.419 586.909 199.105Z" fill="url(#paint0_linear_65_111)"/>
<defs>
<linearGradient id="paint0_linear_65_111" x1="385.416" y1="64.0953" x2="696.82" y2="1072.14" gradientUnits="userSpaceOnUse">
<stop stop-color="#FA1056"/>
<stop offset="1" stop-color="#77CCC7"/>
</linearGradient>
</defs>
</svg>
