<svg width="444" height="623" viewBox="0 0 444 623" fill="none" xmlns="http://www.w3.org/2000/svg">
<path fill-rule="evenodd" clip-rule="evenodd" d="M-96.5627 100.208C-188.794 93.4333 -251.276 -27.9636 -333.636 7.11275C-411.704 40.3608 -328.703 132.788 -324.146 197.133C-321.781 230.511 -322.15 262.686 -313.229 295.224C-305.351 323.96 -291.804 350.18 -274.975 376.472C-255.465 406.951 -231.688 433.837 -206.552 461.879C-157.031 517.129 -147.35 628.869 -54.9503 621.95C37.0954 615.057 -21.5068 456.025 53.7686 414.361C124.811 375.041 240.02 421.552 310.46 381.639C381.417 341.434 474.537 290.554 433.089 235.7C382.255 168.426 221.004 209.343 137.736 162.822C89.2081 135.709 135.882 52.8032 78.0759 37.3552C18.3217 21.3866 -32.5561 104.91 -96.5627 100.208Z" fill="url(#paint0_linear_32_88)"/>
<defs>
<linearGradient id="paint0_linear_32_88" x1="34.2404" y1="-49.8236" x2="85.0601" y2="587.361" gradientUnits="userSpaceOnUse">
<stop stop-color="#E3FFFC"/>
<stop offset="1" stop-color="#D07ADE"/>
</linearGradient>
</defs>
</svg>
