<svg width="434" height="784" viewBox="0 0 434 784" fill="none" xmlns="http://www.w3.org/2000/svg">
<path fill-rule="evenodd" clip-rule="evenodd" d="M543.658 184.354C527.904 181.129 512.253 177.924 497.96 170.554C476.678 159.581 455.812 137.279 435.432 115.498C400.287 77.9355 366.59 41.9216 334.714 68.2354C306.856 91.2323 329.939 127.235 353.992 164.752C376.897 200.476 400.681 237.573 382.195 266.118C362.481 296.561 321.004 294.873 278.731 293.152C239.285 291.546 199.145 289.912 175.344 314.329C139.444 351.157 166.857 417.972 190.816 462.447C206.274 491.142 229.159 520.717 257.496 539.002C273.557 564.782 285.924 590.349 274.239 614.652C260.979 642.231 226.412 645.033 190.94 647.908C159.138 650.485 126.61 653.121 108.056 673.723C74.3461 711.152 76.7136 771.534 90.1878 819.014C103.924 867.417 130.825 934.428 182.899 937.453C217.423 939.458 245.585 911.58 273.26 884.183C302.919 854.823 332.019 826.016 367.792 835.138C401.334 843.692 410.017 886.592 418.378 927.905C427.159 971.289 435.585 1012.92 472.075 1011.2C513.828 1009.22 513.144 960.52 512.43 909.726C512.016 880.274 511.592 850.117 519.427 827.957C524.688 813.073 533.866 800.328 543.104 787.499C549.243 778.974 555.409 770.411 560.471 761.158C565.714 751.574 569.84 741.613 573.952 731.687C579.714 717.781 585.446 703.943 594.181 691.303C606.048 674.132 622.025 659.342 637.873 644.672C663.331 621.106 688.455 597.849 695.672 565.525C696.071 563.74 696.436 561.948 696.768 560.148C711.482 557.753 726.827 557.127 742.068 556.506C775.907 555.126 809.233 553.767 834.004 533.103C876.369 497.762 893.638 436.131 889.349 382.575C885.105 329.583 856.002 275.312 810.931 245.008C782.964 226.203 748.287 225.924 713.15 225.641C691.277 225.465 669.225 225.287 648.502 220.638C633.249 217.217 619.346 210.923 605.374 204.599C595.401 200.085 585.394 195.555 574.835 192.043C564.642 188.651 554.127 186.498 543.658 184.354Z" fill="url(#paint0_linear_65_111)"/>
<defs>
<linearGradient id="paint0_linear_65_111" x1="357.015" y1="59.3278" x2="645.281" y2="992.815" gradientUnits="userSpaceOnUse">
<stop stop-color="#FA1056"/>
<stop offset="1" stop-color="#77CCC7"/>
</linearGradient>
</defs>
</svg>
