<svg width="576" height="849" viewBox="0 0 576 849" fill="none" xmlns="http://www.w3.org/2000/svg">
<path fill-rule="evenodd" clip-rule="evenodd" d="M-16.2401 145.844C-117.58 131.687 -183.426 -34.7043 -274.909 7.86162C-361.624 48.2088 -272.5 176.838 -269.03 263.464C-267.231 308.401 -268.41 351.571 -259.374 395.74C-251.394 434.747 -237.116 470.689 -219.227 506.906C-198.487 548.893 -172.966 586.288 -145.978 625.312C-92.806 702.197 -84.8367 852.727 17.0179 848.51C118.482 844.309 75.6173 664.463 159.461 612.666C238.59 563.781 362.334 636.407 440.814 586.695C519.87 536.618 607.697 432.708 563.4 356.798C509.072 263.699 330.628 309.776 240.107 242.755C187.353 203.696 240.711 94.9656 177.465 71.0556C112.087 46.3399 54.0879 155.668 -16.2401 145.844Z" fill="url(#paint0_linear_32_88)"/>
<defs>
<linearGradient id="paint0_linear_32_88" x1="119.331" y1="-16.3953" x2="159.948" y2="841.746" gradientUnits="userSpaceOnUse">
<stop stop-color="#E3FFFC"/>
<stop offset="1" stop-color="#D07ADE"/>
</linearGradient>
</defs>
</svg>
