<svg width="685" height="1035" viewBox="0 0 685 1035" fill="none" xmlns="http://www.w3.org/2000/svg">
<path fill-rule="evenodd" clip-rule="evenodd" d="M973.715 -31.1962C987.302 -65.3672 1000.4 -98.3058 972.961 -121.598C945.108 -145.242 900.58 -139.144 855.467 -132.967C812.817 -127.126 769.646 -121.214 739.55 -140.294C706.241 -161.411 699.458 -199.673 692.793 -237.269C685.452 -278.677 678.254 -319.277 635.919 -335.274C582.617 -355.415 527.15 -318.571 475.907 -284.532C460.752 -274.465 445.966 -264.644 431.715 -256.614C380.381 -227.691 332.472 -192.915 303.916 -148.213C291.456 -128.706 291.791 -106.165 292.125 -83.6775C292.474 -60.2074 292.823 -36.7958 278.621 -16.9537C262.746 5.22729 235.562 19.0358 208.187 32.941C185.283 44.5756 162.245 56.2778 145.587 73.0085C131.324 87.3336 111.436 102.728 90.9346 118.596C33.8858 162.755 -27.9132 210.589 13.522 249.301C50.5985 283.941 112.639 270.067 176.367 255.815C234.818 242.743 294.689 229.354 338.016 252.791C370.838 270.546 361.165 309.591 351.625 348.1C344.114 378.415 336.686 408.398 350.137 427.4C354.207 444.094 361.368 460.847 368.561 477.672C381.309 507.493 394.155 537.544 390.056 567.902C386.716 592.639 364.588 615.211 343.065 637.167C315.394 665.393 288.722 692.601 304.248 722.084C320.008 752.013 364.398 758.727 409.37 765.529C451.886 771.96 494.923 778.47 514.781 804.748C536.759 833.831 526.387 871.576 516.195 908.664C504.97 949.512 493.964 989.564 526.638 1016.37C567.777 1050.12 635.858 1031.08 698.755 1013.48C717.357 1008.28 735.505 1003.2 752.368 999.658C813.114 986.884 873.208 967.671 919.509 933.754C939.713 918.954 949.254 897.74 958.772 876.575C968.706 854.486 978.615 832.452 1000.6 817.824C1025.17 801.471 1056.68 796.12 1088.41 790.731C1114.96 786.222 1141.66 781.687 1164.58 770.659C1184.21 761.217 1209.57 752.344 1235.72 743.197C1308.48 717.743 1387.3 690.17 1365.4 642.332C1345.81 599.526 1281.61 595.211 1215.66 590.778C1155.18 586.712 1093.23 582.548 1062.88 548.495C1039.88 522.698 1066.02 488.812 1091.79 455.392C1118.1 421.29 1144.02 387.672 1117 363.628C1095.74 344.714 1066.38 352.269 1034.15 365.877C1071.12 324.177 1086.07 267.1 1080.83 216.826C1077.16 181.589 1048.49 153.604 1019.56 125.367C994.573 100.982 969.398 76.4105 959.966 46.8205C952.281 22.7092 963.146 -4.6163 973.715 -31.1962Z" fill="url(#paint0_linear_19_248)"/>
<defs>
<linearGradient id="paint0_linear_19_248" x1="833.437" y1="763.166" x2="123.743" y2="-431.358" gradientUnits="userSpaceOnUse">
<stop stop-color="#EF0EE6"/>
<stop offset="1" stop-color="#883939"/>
</linearGradient>
</defs>
</svg>
