<svg width="470" height="607" viewBox="0 0 470 607" fill="none" xmlns="http://www.w3.org/2000/svg">
<path fill-rule="evenodd" clip-rule="evenodd" d="M197.488 190.677C151.297 110.72 -1.39708 110.605 0.0996645 20.1745C1.51839 -65.5424 132.813 -33.5358 201.624 -59.2046C237.319 -72.5202 270.603 -87.7409 308.208 -94.7604C341.418 -100.96 374.42 -100.889 408.889 -97.8933C448.85 -94.4205 486.885 -85.44 526.701 -75.772C605.144 -56.7242 725.389 -99.7084 757.418 -13.263C789.325 72.8513 634.1 96.3627 622.749 183.458C612.037 265.656 711.629 345.04 700.046 426.969C688.378 509.499 637.737 617.106 563.131 605.147C471.633 590.481 445.714 426.275 362.017 372.785C313.24 341.612 246.884 422.025 206.291 377.095C164.33 330.651 229.543 246.166 197.488 190.677Z" fill="url(#paint0_linear_32_87)"/>
<defs>
<linearGradient id="paint0_linear_32_87" x1="117.881" y1="357.388" x2="719.074" y2="-80.0221" gradientUnits="userSpaceOnUse">
<stop stop-color="#E3FFFC"/>
<stop offset="1" stop-color="#D07ADE"/>
</linearGradient>
</defs>
</svg>
