<svg width="24" height="24" viewBox="0 0 24 24" fill="none" xmlns="http://www.w3.org/2000/svg">
<g clip-path="url(#clip0_25_147)">
<path d="M20.3175 4.36032C18.7613 3.64612 17.1191 3.13638 15.432 2.84382C15.4167 2.84124 15.401 2.84346 15.387 2.85018C15.3731 2.85689 15.3615 2.86777 15.354 2.88132C15.1425 3.25632 14.9085 3.74682 14.745 4.13082C12.9264 3.85483 11.0766 3.85483 9.25799 4.13082C9.07561 3.70305 8.86928 3.28588 8.63999 2.88132C8.6323 2.86792 8.62073 2.85717 8.60681 2.85047C8.59288 2.84378 8.57726 2.84146 8.56199 2.84382C6.87449 3.13482 5.23199 3.64482 3.67649 4.36032C3.66318 4.3654 3.65205 4.37494 3.64499 4.38732C0.533994 9.03582 -0.319506 13.5703 0.0989939 18.0478C0.100494 18.0688 0.113994 18.0898 0.130494 18.1033C1.94208 19.4452 3.96838 20.4698 6.12299 21.1333C6.13821 21.1381 6.15455 21.1379 6.16966 21.1328C6.18476 21.1277 6.19784 21.1179 6.20699 21.1048C6.66899 20.4748 7.07999 19.8103 7.43399 19.1113C7.44137 19.0969 7.4439 19.0805 7.4412 19.0646C7.43849 19.0486 7.4307 19.034 7.41899 19.0228C7.41124 19.0155 7.40205 19.0099 7.39199 19.0063C6.74574 18.7579 6.11984 18.4595 5.51999 18.1138C5.50324 18.1043 5.49078 18.0887 5.48519 18.0703C5.47961 18.0519 5.48133 18.032 5.48999 18.0148C5.4951 18.0036 5.50282 17.9939 5.51249 17.9863C5.63849 17.8918 5.76449 17.7928 5.88449 17.6938C5.89509 17.6853 5.90781 17.6798 5.92129 17.678C5.93476 17.6761 5.94849 17.678 5.96099 17.6833C9.88949 19.4773 14.142 19.4773 18.0225 17.6833C18.0355 17.6777 18.0497 17.6757 18.0637 17.6776C18.0777 17.6794 18.0909 17.685 18.102 17.6938C18.222 17.7928 18.348 17.8918 18.474 17.9863C18.4842 17.9938 18.4924 18.0037 18.4979 18.0151C18.5033 18.0265 18.5059 18.039 18.5053 18.0517C18.5047 18.0643 18.501 18.0766 18.4945 18.0874C18.488 18.0983 18.4789 18.1073 18.468 18.1138C17.8695 18.4627 17.2428 18.7608 16.5945 19.0048C16.5842 19.0086 16.5748 19.0145 16.567 19.0223C16.5592 19.0301 16.5532 19.0395 16.5495 19.0498C16.546 19.0598 16.5446 19.0705 16.5454 19.081C16.5462 19.0916 16.5491 19.1019 16.554 19.1113C16.914 19.8088 17.3265 20.4748 17.7795 21.1048C17.7886 21.1179 17.8017 21.1277 17.8168 21.1328C17.8319 21.1379 17.8483 21.1381 17.8635 21.1333C20.0217 20.4719 22.0513 19.4472 23.865 18.1033C23.8741 18.097 23.8816 18.0888 23.8871 18.0792C23.8925 18.0696 23.8958 18.0588 23.8965 18.0478C24.3975 12.8713 23.058 8.37432 20.3475 4.38882C20.3448 4.38223 20.3407 4.3763 20.3355 4.37139C20.3303 4.36648 20.3242 4.36271 20.3175 4.36032ZM8.02049 15.3208C6.83699 15.3208 5.86349 14.2348 5.86349 12.9028C5.86349 11.5693 6.81899 10.4833 8.02049 10.4833C9.23099 10.4833 10.1955 11.5783 10.1775 12.9028C10.1775 14.2348 9.22199 15.3208 8.02049 15.3208ZM15.9945 15.3208C14.8125 15.3208 13.8375 14.2348 13.8375 12.9028C13.8375 11.5693 14.793 10.4833 15.9945 10.4833C17.205 10.4833 18.171 11.5783 18.1515 12.9028C18.1515 14.2348 17.205 15.3208 15.9945 15.3208Z" fill="black"/>
</g>
<defs>
<clipPath id="clip0_25_147">
<rect width="24" height="24" fill="white"/>
</clipPath>
</defs>
</svg>
