<svg width="30" height="23" viewBox="0 0 30 23" fill="none" xmlns="http://www.w3.org/2000/svg">
<path d="M25.3961 1.86613C23.4837 1.00366 21.4337 0.366177 19.29 0.0036876C19.2709 2.26017e-05 19.2512 0.00238446 19.2335 0.0104466C19.2158 0.0185087 19.2011 0.0318722 19.1913 0.0486863C18.9288 0.509923 18.6363 1.11116 18.4313 1.58614C16.1578 1.24645 13.8463 1.24645 11.5728 1.58614C11.3444 1.05973 11.087 0.546452 10.8015 0.0486863C10.7919 0.0316652 10.7772 0.0179994 10.7596 0.00951259C10.7419 0.0010258 10.7221 -0.00187846 10.7028 0.00118756C8.56035 0.363677 6.51041 1.00116 4.59672 1.86488C4.58025 1.87179 4.5663 1.88357 4.55672 1.89863C0.666832 7.61722 -0.399388 13.1946 0.124347 18.7019C0.125805 18.7154 0.129991 18.7284 0.136653 18.7403C0.143315 18.7521 0.152311 18.7624 0.163096 18.7706C2.43352 20.4236 4.96588 21.6828 7.65413 22.4955C7.67287 22.5013 7.69291 22.5013 7.71164 22.4955C7.73038 22.4897 7.74692 22.4784 7.75913 22.463C8.3376 21.6894 8.85022 20.8686 9.29158 20.0094C9.29771 19.9976 9.30124 19.9847 9.30193 19.9715C9.30263 19.9582 9.30048 19.945 9.29562 19.9327C9.29076 19.9203 9.28331 19.9092 9.27377 19.9C9.26423 19.8908 9.25283 19.8838 9.24033 19.8794C8.43286 19.5753 7.65049 19.2083 6.9004 18.7819C6.88692 18.7742 6.87557 18.7633 6.86735 18.7501C6.85913 18.737 6.85431 18.722 6.85332 18.7065C6.85233 18.691 6.8552 18.6755 6.86167 18.6614C6.86814 18.6473 6.87801 18.635 6.8904 18.6256C7.0479 18.5094 7.20539 18.3882 7.35539 18.2669C7.36889 18.256 7.38515 18.2491 7.40237 18.2469C7.41958 18.2447 7.43707 18.2473 7.45289 18.2544C12.3615 20.4593 17.6776 20.4593 22.5287 18.2544C22.5446 18.2468 22.5622 18.2439 22.5797 18.2459C22.5971 18.2479 22.6137 18.2547 22.6274 18.2657C22.7774 18.3882 22.9337 18.5094 23.0924 18.6256C23.1049 18.6348 23.115 18.6469 23.1217 18.6609C23.1283 18.6749 23.1314 18.6903 23.1307 18.7058C23.13 18.7213 23.1254 18.7363 23.1174 18.7496C23.1094 18.7629 23.0983 18.774 23.0849 18.7819C22.3375 19.2119 21.56 19.5756 20.7438 19.8781C20.7312 19.8827 20.7198 19.8898 20.7103 19.8992C20.7007 19.9085 20.6933 19.9197 20.6884 19.9321C20.6836 19.9446 20.6814 19.9579 20.6821 19.9712C20.6828 19.9845 20.6864 19.9975 20.6925 20.0094C21.1425 20.8681 21.6575 21.6856 22.2237 22.4618C22.2355 22.4777 22.2519 22.4896 22.2707 22.4959C22.2895 22.5022 22.3097 22.5025 22.3287 22.4968C25.0216 21.6864 27.5581 20.4266 29.831 18.7706C29.8421 18.7629 29.8514 18.7529 29.8583 18.7412C29.8652 18.7296 29.8695 18.7166 29.871 18.7031C30.496 12.3358 28.8235 6.80349 25.4349 1.90113C25.4266 1.8852 25.4128 1.87278 25.3961 1.86613ZM10.0253 15.3482C8.54785 15.3482 7.32914 14.012 7.32914 12.3733C7.32914 10.7334 8.52411 9.39842 10.0253 9.39842C11.5378 9.39842 12.7452 10.7446 12.7215 12.3733C12.7215 14.0133 11.5265 15.3482 10.0253 15.3482V15.3482ZM19.9938 15.3482C18.5151 15.3482 17.2976 14.012 17.2976 12.3733C17.2976 10.7334 18.4913 9.39842 19.9938 9.39842C21.5062 9.39842 22.7137 10.7446 22.6899 12.3733C22.6899 14.0133 21.5075 15.3482 19.9938 15.3482V15.3482Z" fill="black"/>
</svg>
