<svg width="30" height="24" viewBox="0 0 30 24" fill="none" xmlns="http://www.w3.org/2000/svg">
<path d="M9.42375 23.125C20.745 23.125 26.9381 14.2259 26.9381 6.52214C26.9381 6.27311 26.9381 6.02053 26.9269 5.7715C28.1326 4.94347 29.1732 3.91831 30 2.74407C28.8737 3.21517 27.6802 3.52566 26.4581 3.66546C27.7454 2.93553 28.7095 1.78704 29.1712 0.43347C27.9619 1.11317 26.6382 1.59032 25.2581 1.84402C24.3303 0.90666 23.1026 0.285687 21.7652 0.0772878C20.4277 -0.131111 19.0551 0.0846945 17.86 0.691277C16.6649 1.29786 15.714 2.26137 15.1546 3.43255C14.5952 4.60374 14.4585 5.91724 14.7656 7.1696C12.3183 7.05318 9.92403 6.45004 7.73821 5.39929C5.55238 4.34853 3.62378 2.87364 2.0775 1.07026C1.29251 2.35645 1.05295 3.87785 1.40746 5.32551C1.76197 6.77317 2.68398 8.03858 3.98625 8.86475C3.01039 8.8333 2.05598 8.5847 1.2 8.13902V8.21906C1.20168 9.56643 1.6937 10.8719 2.59289 11.9149C3.49208 12.9578 4.74328 13.6743 6.135 13.9431C5.60674 14.0811 5.06106 14.15 4.51313 14.1476C4.12684 14.1488 3.74134 14.1148 3.36187 14.0463C3.75522 15.2061 4.52114 16.2202 5.55234 16.9465C6.58354 17.6728 7.82838 18.0749 9.1125 18.0965C6.93104 19.7219 4.23638 20.6035 1.4625 20.5992C0.973726 20.6011 0.485293 20.5744 0 20.5191C2.81534 22.2219 6.08493 23.126 9.42375 23.125V23.125Z" fill="black"/>
</svg>
